<svg width="788" height="345" viewBox="0 0 788 345" fill="none" xmlns="http://www.w3.org/2000/svg">
<path d="M221.426 159.643C221.426 160.027 222.242 161.613 223.876 164.399C224.74 165.84 225.173 167.137 225.173 168.29C225.173 173.093 222.675 175.495 217.679 175.495C215.181 175.495 213.116 174.774 211.483 173.333C209.945 171.796 209.177 169.635 209.177 166.848C209.177 161.853 211.963 157.482 217.535 153.735C223.107 149.892 230.072 147.971 238.43 147.971C246.02 147.971 251.976 149.652 256.299 153.014C260.719 156.281 262.928 160.556 262.928 165.84V202.875C262.928 209.12 264.85 212.242 268.693 212.242C269.749 212.242 270.71 212.098 271.575 211.81C272.535 211.425 273.544 210.849 274.601 210.08L277.339 213.971C273.88 217.622 270.038 219.447 265.81 219.447C259.182 219.447 254.426 215.412 251.544 207.342C247.317 211.762 243.666 214.788 240.592 216.421C236.845 218.438 232.282 219.447 226.902 219.447C220.273 219.447 215.085 218.006 211.338 215.124C207.688 212.242 205.862 208.399 205.862 203.596C205.862 196.774 209.801 191.01 217.679 186.303C225.653 181.499 236.749 178.281 250.968 176.648V166.56C250.968 162.621 249.478 159.403 246.5 156.905C243.618 154.407 239.967 153.158 235.548 153.158C231.801 153.158 228.487 153.927 225.605 155.464C222.819 156.905 221.426 158.298 221.426 159.643ZM250.968 191.202V181.547C239.823 183.084 231.705 185.438 226.614 188.608C221.618 191.683 219.12 196.198 219.12 202.154C219.12 205.805 220.081 208.687 222.002 210.801C224.02 212.818 226.71 213.827 230.072 213.827C235.644 213.827 240.496 211.713 244.627 207.486C248.854 203.163 250.968 197.735 250.968 191.202Z" fill="#5B4D47"/>
<path d="M256.729 111.173V100H369.044C382.373 100 393.644 101.568 402.857 104.704C412.069 107.645 421.38 113.525 430.788 122.345C452.742 143.123 463.719 171.741 463.719 208.199C463.719 239.169 456.368 264.063 441.667 282.88C427.162 301.697 406.777 312.772 380.511 316.104C377.571 316.496 373.651 316.79 368.75 316.986C364.046 317.182 360.224 317.28 357.284 317.28H256.729V306.107H277.31C286.719 306.107 291.423 302.677 291.423 295.817V120.875C291.423 114.407 287.307 111.173 279.075 111.173H256.729ZM360.518 111.173H335.82C327 111.173 322.589 114.701 322.589 121.757V295.523C322.589 302.579 327.98 306.107 338.76 306.107H357.284C382.177 306.107 400.21 298.561 411.383 283.468C422.556 268.179 428.142 244.265 428.142 211.727C428.142 177.229 422.654 151.845 411.677 135.576C400.7 119.307 383.647 111.173 360.518 111.173Z" fill="white"/>
<path d="M304.02 255.831L303.084 255.831C302.692 253.497 300.901 252.33 297.712 252.33L297.712 251.421L302.79 251.421L302.79 247.358L304.02 247.358L304.02 251.421L312.065 251.421C312.742 251.421 313.277 251.26 313.669 250.94C314.061 250.619 314.257 250.173 314.257 249.603C314.257 248.908 313.945 248.365 313.322 247.973C312.698 247.563 311.789 247.358 310.595 247.358L310.595 246.449C312.199 246.449 313.428 246.806 314.284 247.518C315.121 248.213 315.54 249.158 315.54 250.352C315.54 251.367 315.264 252.169 314.711 252.757C314.159 253.345 313.393 253.639 312.413 253.639L304.02 253.639L304.02 255.831ZM303.753 245.611L302.79 245.611L302.576 241.12L307.628 241.12C305.935 240.621 304.67 240.033 303.833 239.356C302.995 238.679 302.576 237.841 302.576 236.844C302.576 236.166 302.79 235.632 303.218 235.24C303.628 234.83 304.198 234.625 304.929 234.625C305.428 234.625 305.837 234.759 306.158 235.026C306.479 235.293 306.639 235.641 306.639 236.068C306.639 236.46 306.506 236.781 306.238 237.031C305.953 237.262 305.588 237.378 305.142 237.378C304.893 237.378 304.635 237.316 304.367 237.191C304.1 237.066 303.94 237.004 303.886 237.004C303.851 237.004 303.815 237.04 303.779 237.111C303.779 237.129 303.77 237.173 303.753 237.244C303.753 238.011 304.501 238.795 305.998 239.597C307.477 240.381 309.045 240.773 310.702 240.773L313.375 240.773C313.999 240.773 314.311 240.3 314.311 239.356L314.311 237.752L315.326 237.752L315.326 245.53L314.311 245.53L314.311 244.301C314.311 243.428 314.025 242.991 313.455 242.991L305.49 242.991C304.332 242.991 303.753 243.499 303.753 244.515L303.753 245.611ZM295.306 230.39C295.306 229.981 295.458 229.624 295.761 229.321C296.064 229.018 296.429 228.867 296.856 228.867C297.266 228.867 297.614 229.009 297.899 229.295C298.184 229.58 298.327 229.936 298.327 230.364C298.327 230.791 298.184 231.148 297.899 231.433C297.614 231.718 297.266 231.86 296.856 231.86C296.447 231.86 296.09 231.718 295.787 231.433C295.467 231.13 295.306 230.782 295.306 230.39ZM303.806 233.838L302.79 233.838L302.576 228.867L313.402 228.867C314.008 228.867 314.311 228.537 314.311 227.878L314.311 226.461L315.326 226.461L315.326 233.571L314.311 233.571L314.311 232.261C314.311 231.477 313.936 231.085 313.188 231.085L305.303 231.085C304.305 231.085 303.806 231.656 303.806 232.796L303.806 233.838ZM302.79 225.678L302.576 221.642C303.022 221.553 303.476 221.473 303.94 221.402C304.403 221.33 304.848 221.295 305.276 221.295C304.385 220.724 303.726 220.127 303.298 219.504C302.817 218.809 302.576 218.025 302.576 217.152C302.576 215.744 303.191 214.541 304.421 213.543C305.65 212.545 307.227 212.046 309.152 212.046C311.041 212.046 312.609 212.572 313.856 213.623C315.086 214.657 315.7 215.913 315.7 217.392C315.7 218.978 314.899 220.252 313.295 221.214L318.4 221.214C319.131 221.214 319.496 220.787 319.496 219.931L319.496 218.996L320.512 218.996L320.512 225.678L319.496 225.678L319.496 224.743C319.496 223.887 319.202 223.46 318.614 223.46L305.41 223.46C304.75 223.46 304.305 223.629 304.073 223.967C303.824 224.288 303.699 224.858 303.699 225.678L302.79 225.678ZM303.779 217.766C303.779 218.782 304.278 219.62 305.276 220.279C306.256 220.92 307.557 221.241 309.179 221.241C310.907 221.241 312.226 220.938 313.134 220.332C314.043 219.709 314.498 218.853 314.498 217.766C314.498 215.664 312.707 214.612 309.125 214.612C307.397 214.612 306.078 214.889 305.169 215.441C304.243 215.993 303.779 216.768 303.779 217.766Z" fill="#5B4D47"/>
<path d="M304.02 306.059L303.084 306.059C302.692 303.725 300.901 302.558 297.712 302.558L297.712 301.649L302.79 301.649L302.79 297.586L304.02 297.586L304.02 301.649L312.065 301.649C312.742 301.649 313.277 301.489 313.669 301.168C314.061 300.847 314.257 300.402 314.257 299.831C314.257 299.137 313.945 298.593 313.322 298.201C312.698 297.791 311.789 297.586 310.595 297.586L310.595 296.677C312.199 296.677 313.428 297.034 314.284 297.747C315.121 298.442 315.54 299.386 315.54 300.58C315.54 301.596 315.264 302.397 314.711 302.985C314.159 303.574 313.393 303.868 312.413 303.868L304.02 303.868L304.02 306.059ZM303.753 295.839L302.79 295.839L302.576 291.348L307.628 291.348C305.935 290.849 304.67 290.261 303.833 289.584C302.995 288.907 302.576 288.07 302.576 287.072C302.576 286.395 302.79 285.86 303.218 285.468C303.628 285.058 304.198 284.853 304.929 284.853C305.428 284.853 305.837 284.987 306.158 285.254C306.479 285.521 306.639 285.869 306.639 286.297C306.639 286.689 306.506 287.009 306.238 287.259C305.953 287.491 305.588 287.606 305.142 287.606C304.893 287.606 304.635 287.544 304.367 287.419C304.1 287.294 303.94 287.232 303.886 287.232C303.851 287.232 303.815 287.268 303.779 287.339C303.779 287.357 303.77 287.401 303.753 287.473C303.753 288.239 304.501 289.023 305.998 289.825C307.477 290.609 309.045 291.001 310.702 291.001L313.375 291.001C313.999 291.001 314.311 290.529 314.311 289.584L314.311 287.981L315.326 287.981L315.326 295.759L314.311 295.759L314.311 294.529C314.311 293.656 314.025 293.219 313.455 293.219L305.49 293.219C304.332 293.219 303.753 293.727 303.753 294.743L303.753 295.839ZM295.306 280.619C295.306 280.209 295.458 279.852 295.761 279.549C296.064 279.247 296.429 279.095 296.856 279.095C297.266 279.095 297.614 279.238 297.899 279.523C298.184 279.808 298.327 280.164 298.327 280.592C298.327 281.02 298.184 281.376 297.899 281.661C297.614 281.946 297.266 282.089 296.856 282.089C296.447 282.089 296.09 281.946 295.787 281.661C295.467 281.358 295.306 281.011 295.306 280.619ZM303.806 284.067L302.79 284.067L302.576 279.095L313.402 279.095C314.008 279.095 314.311 278.765 314.311 278.106L314.311 276.689L315.326 276.689L315.326 283.799L314.311 283.799L314.311 282.49C314.311 281.706 313.936 281.314 313.188 281.314L305.303 281.314C304.305 281.314 303.806 281.884 303.806 283.024L303.806 284.067ZM302.79 275.906L302.576 271.87C303.022 271.781 303.476 271.701 303.94 271.63C304.403 271.558 304.848 271.523 305.276 271.523C304.385 270.953 303.726 270.356 303.298 269.732C302.817 269.037 302.576 268.253 302.576 267.38C302.576 265.972 303.191 264.769 304.421 263.771C305.65 262.774 307.227 262.275 309.152 262.275C311.041 262.275 312.609 262.8 313.856 263.852C315.086 264.885 315.7 266.141 315.7 267.62C315.7 269.206 314.899 270.48 313.295 271.443L318.4 271.443C319.131 271.443 319.496 271.015 319.496 270.16L319.496 269.224L320.512 269.224L320.512 275.906L319.496 275.906L319.496 274.971C319.496 274.116 319.202 273.688 318.614 273.688L305.41 273.688C304.75 273.688 304.305 273.857 304.073 274.196C303.824 274.516 303.699 275.087 303.699 275.906L302.79 275.906ZM303.779 267.995C303.779 269.01 304.278 269.848 305.276 270.507C306.256 271.149 307.557 271.469 309.179 271.469C310.907 271.469 312.226 271.166 313.134 270.561C314.043 269.937 314.498 269.082 314.498 267.995C314.498 265.892 312.707 264.841 309.125 264.841C307.397 264.841 306.078 265.117 305.169 265.669C304.243 266.222 303.779 266.997 303.779 267.995Z" fill="#5B4D47"/>
<path d="M304.02 205.603L303.084 205.603C302.692 203.269 300.901 202.101 297.712 202.101L297.712 201.193L302.79 201.193L302.79 197.13L304.02 197.13L304.02 201.193L312.065 201.193C312.742 201.193 313.277 201.032 313.669 200.711C314.061 200.391 314.257 199.945 314.257 199.375C314.257 198.68 313.945 198.137 313.322 197.745C312.698 197.335 311.789 197.13 310.595 197.13L310.595 196.221C312.199 196.221 313.428 196.577 314.284 197.29C315.121 197.985 315.54 198.93 315.54 200.123C315.54 201.139 315.264 201.941 314.711 202.529C314.159 203.117 313.393 203.411 312.413 203.411L304.02 203.411L304.02 205.603ZM303.753 195.382L302.79 195.382L302.576 190.892L307.628 190.892C305.935 190.393 304.67 189.805 303.833 189.128C302.995 188.451 302.576 187.613 302.576 186.615C302.576 185.938 302.79 185.404 303.218 185.012C303.628 184.602 304.198 184.397 304.929 184.397C305.428 184.397 305.837 184.53 306.158 184.798C306.479 185.065 306.639 185.412 306.639 185.84C306.639 186.232 306.506 186.553 306.238 186.802C305.953 187.034 305.588 187.15 305.142 187.15C304.893 187.15 304.635 187.087 304.367 186.963C304.1 186.838 303.94 186.776 303.886 186.776C303.851 186.776 303.815 186.811 303.779 186.883C303.779 186.9 303.77 186.945 303.753 187.016C303.753 187.782 304.501 188.566 305.998 189.368C307.477 190.152 309.045 190.544 310.702 190.544L313.375 190.544C313.999 190.544 314.311 190.072 314.311 189.128L314.311 187.524L315.326 187.524L315.326 195.302L314.311 195.302L314.311 194.073C314.311 193.2 314.025 192.763 313.455 192.763L305.49 192.763C304.332 192.763 303.753 193.271 303.753 194.287L303.753 195.382ZM295.306 180.162C295.306 179.752 295.458 179.396 295.761 179.093C296.064 178.79 296.429 178.639 296.856 178.639C297.266 178.639 297.614 178.781 297.899 179.066C298.184 179.351 298.327 179.708 298.327 180.135C298.327 180.563 298.184 180.919 297.899 181.205C297.614 181.49 297.266 181.632 296.856 181.632C296.447 181.632 296.09 181.49 295.787 181.205C295.467 180.902 295.306 180.554 295.306 180.162ZM303.806 183.61L302.79 183.61L302.576 178.639L313.402 178.639C314.008 178.639 314.311 178.309 314.311 177.65L314.311 176.233L315.326 176.233L315.326 183.343L314.311 183.343L314.311 182.033C314.311 181.249 313.936 180.857 313.188 180.857L305.303 180.857C304.305 180.857 303.806 181.427 303.806 182.568L303.806 183.61ZM302.79 175.45L302.576 171.414C303.022 171.325 303.476 171.245 303.94 171.173C304.403 171.102 304.848 171.066 305.276 171.066C304.385 170.496 303.726 169.899 303.298 169.275C302.817 168.581 302.576 167.796 302.576 166.923C302.576 165.516 303.191 164.313 304.421 163.315C305.65 162.317 307.227 161.818 309.152 161.818C311.041 161.818 312.609 162.344 313.856 163.395C315.086 164.429 315.7 165.685 315.7 167.164C315.7 168.75 314.899 170.024 313.295 170.986L318.4 170.986C319.131 170.986 319.496 170.558 319.496 169.703L319.496 168.768L320.512 168.768L320.512 175.45L319.496 175.45L319.496 174.514C319.496 173.659 319.202 173.231 318.614 173.231L305.41 173.231C304.75 173.231 304.305 173.401 304.073 173.739C303.824 174.06 303.699 174.63 303.699 175.45L302.79 175.45ZM303.779 167.538C303.779 168.554 304.278 169.391 305.276 170.051C306.256 170.692 307.557 171.013 309.179 171.013C310.907 171.013 312.226 170.71 313.134 170.104C314.043 169.48 314.498 168.625 314.498 167.538C314.498 165.435 312.707 164.384 309.125 164.384C307.397 164.384 306.078 164.66 305.169 165.213C304.243 165.765 303.779 166.54 303.779 167.538Z" fill="#5B4D47"/>
<path d="M304.02 155.375L303.084 155.375C302.692 153.04 300.901 151.873 297.712 151.873L297.712 150.964L302.79 150.964L302.79 146.902L304.02 146.902L304.02 150.964L312.065 150.964C312.742 150.964 313.277 150.804 313.669 150.483C314.061 150.162 314.257 149.717 314.257 149.147C314.257 148.452 313.945 147.908 313.322 147.516C312.698 147.106 311.789 146.902 310.595 146.902L310.595 145.993C312.199 145.993 313.428 146.349 314.284 147.062C315.121 147.757 315.54 148.701 315.54 149.895C315.54 150.911 315.264 151.713 314.711 152.301C314.159 152.889 313.393 153.183 312.413 153.183L304.02 153.183L304.02 155.375ZM303.753 145.154L302.79 145.154L302.576 140.664L307.628 140.664C305.935 140.165 304.67 139.577 303.833 138.9C302.995 138.222 302.576 137.385 302.576 136.387C302.576 135.71 302.79 135.175 303.218 134.783C303.628 134.373 304.198 134.169 304.929 134.169C305.428 134.169 305.837 134.302 306.158 134.569C306.479 134.837 306.639 135.184 306.639 135.612C306.639 136.004 306.506 136.325 306.238 136.574C305.953 136.806 305.588 136.922 305.142 136.922C304.893 136.922 304.635 136.859 304.367 136.735C304.1 136.61 303.94 136.547 303.886 136.547C303.851 136.547 303.815 136.583 303.779 136.654C303.779 136.672 303.77 136.717 303.753 136.788C303.753 137.554 304.501 138.338 305.998 139.14C307.477 139.924 309.045 140.316 310.702 140.316L313.375 140.316C313.999 140.316 314.311 139.844 314.311 138.9L314.311 137.296L315.326 137.296L315.326 145.074L314.311 145.074L314.311 143.844C314.311 142.971 314.025 142.535 313.455 142.535L305.49 142.535C304.332 142.535 303.753 143.043 303.753 144.058L303.753 145.154ZM295.306 129.934C295.306 129.524 295.458 129.168 295.761 128.865C296.064 128.562 296.429 128.41 296.856 128.41C297.266 128.41 297.614 128.553 297.899 128.838C298.184 129.123 298.327 129.48 298.327 129.907C298.327 130.335 298.184 130.691 297.899 130.976C297.614 131.261 297.266 131.404 296.856 131.404C296.447 131.404 296.09 131.261 295.787 130.976C295.467 130.673 295.306 130.326 295.306 129.934ZM303.806 133.382L302.79 133.382L302.576 128.41L313.402 128.41C314.008 128.41 314.311 128.081 314.311 127.421L314.311 126.005L315.326 126.005L315.326 133.115L314.311 133.115L314.311 131.805C314.311 131.021 313.936 130.629 313.188 130.629L305.303 130.629C304.305 130.629 303.806 131.199 303.806 132.34L303.806 133.382ZM302.79 125.222L302.576 121.186C303.022 121.096 303.476 121.016 303.94 120.945C304.403 120.874 304.848 120.838 305.276 120.838C304.385 120.268 303.726 119.671 303.298 119.047C302.817 118.352 302.576 117.568 302.576 116.695C302.576 115.287 303.191 114.085 304.421 113.087C305.65 112.089 307.227 111.59 309.152 111.59C311.041 111.59 312.609 112.116 313.856 113.167C315.086 114.2 315.7 115.457 315.7 116.936C315.7 118.522 314.899 119.796 313.295 120.758L318.4 120.758C319.131 120.758 319.496 120.33 319.496 119.475L319.496 118.539L320.512 118.539L320.512 125.222L319.496 125.222L319.496 124.286C319.496 123.431 319.202 123.003 318.614 123.003L305.41 123.003C304.75 123.003 304.305 123.172 304.073 123.511C303.824 123.832 303.699 124.402 303.699 125.222L302.79 125.222ZM303.779 117.31C303.779 118.326 304.278 119.163 305.276 119.822C306.256 120.464 307.557 120.785 309.179 120.785C310.907 120.785 312.226 120.482 313.134 119.876C314.043 119.252 314.498 118.397 314.498 117.31C314.498 115.207 312.707 114.156 309.125 114.156C307.397 114.156 306.078 114.432 305.169 114.984C304.243 115.537 303.779 116.312 303.779 117.31Z" fill="#5B4D47"/>
<path d="M456.166 160.809L427.399 190.946C433.335 285.009 394.065 301.448 365.298 305.557H334.705C331.965 305.557 325.572 302.818 324.659 301.448L303.198 316.973H361.645C372.969 318.069 391.236 314.882 401.371 311.95C473.974 290.946 470.321 191.859 456.166 160.809Z" fill="#5B4D47"/>
<path d="M110.364 217.43H0.400757V206.257H18.6299C23.5303 206.257 27.3525 205.571 30.0967 204.199C33.0369 202.631 34.507 200.475 34.507 197.73V23.9652C34.507 15.5366 29.6067 11.3224 19.806 11.3224H0.400757V0.149628H113.892C135.258 0.149628 152.017 4.85393 164.169 14.2625C176.518 23.6712 182.693 36.216 182.693 51.897C182.693 64.0498 178.478 74.4385 170.05 83.063C161.817 91.4916 149.468 98.254 133.003 103.35C173.97 112.171 194.453 130.792 194.453 159.214C194.453 176.071 186.809 189.988 171.52 200.965C156.427 211.941 136.042 217.43 110.364 217.43ZM65.379 22.2011V99.8221H106.542C134.179 99.8221 147.998 83.9451 147.998 52.191C147.998 35.5299 143.49 24.3572 134.473 18.6728C126.829 13.7725 112.716 11.3224 92.1347 11.3224C82.9221 11.3224 76.1597 11.6164 71.8474 12.2044C67.5351 12.5964 65.379 15.9287 65.379 22.2011ZM110.07 110.995H65.379V194.496C65.379 202.337 70.6713 206.257 81.256 206.257H107.718C141.824 206.257 158.877 190.38 158.877 158.626C158.877 143.729 154.565 132.066 145.94 123.638C137.316 115.209 125.359 110.995 110.07 110.995Z" fill="white"/>
<path d="M65.495 123.654L34.2465 149.393L33.7899 106.471V58.5257C34.0943 50.9154 34.5205 33.3203 33.7899 23.8226C33.0593 14.3249 25.8752 11.646 22.3744 11.4938H19.1781H0V0.078306H21.0045H81.2785C84.3226 0.078306 93.3366 0.358481 105.023 0.078306C122.202 -0.333577 128.463 0.991547 132.877 1.44817C159.178 4.37054 173.854 21.6248 177.811 30.1483L147.879 55.55C148.609 46.7829 145.966 36.9124 144.749 32.955C143.379 29.9109 141.975 24.1069 132.877 17.8865C126.423 13.4742 106.545 11.646 97.2602 11.4938H78.5387C66.8493 11.8591 65.4652 19.8652 65.7696 23.8226V99.6216H94.0638L80.3652 111.037H65.495V123.654Z" fill="#5B4D47"/>
<path d="M519.636 295.165L524.458 297.21C517.347 311.043 507.07 317.959 493.627 317.959C484.373 317.959 476.628 314.696 470.394 308.169C464.257 301.545 461.188 293.022 461.188 282.598C461.188 271.591 464.208 262.629 470.248 255.713C476.287 248.796 483.934 245.338 493.188 245.338C502.54 245.338 509.992 248.65 515.544 255.274C521.194 261.801 524.019 270.86 524.019 282.452H474.924C474.924 286.251 475.167 289.612 475.654 292.535C476.141 295.457 476.969 297.99 478.138 300.133C482.132 307.633 488.318 311.384 496.695 311.384C506.242 311.384 513.888 305.977 519.636 295.165ZM474.924 276.9H504.586C508.287 276.9 510.138 274.465 510.138 269.594C510.138 264.139 508.482 259.512 505.17 255.713C501.955 251.816 498.01 249.868 493.334 249.868C487.879 249.868 483.447 252.255 480.038 257.028C476.628 261.801 474.924 268.425 474.924 276.9Z" fill="white"/>
<path d="M530.516 290.197H535.338C538.162 298.087 541.475 303.834 545.274 307.439C549.073 310.945 554.089 312.699 560.324 312.699C565.292 312.699 569.237 311.579 572.159 309.338C575.179 307 576.689 304.029 576.689 300.425C576.689 294.678 573.134 291.171 566.022 289.904L547.173 285.813C542.4 284.644 538.601 282.404 535.776 279.092C533.048 275.78 531.685 271.981 531.685 267.694C531.685 261.85 533.779 256.833 537.968 252.644C542.254 248.358 547.904 246.215 554.917 246.215C560.957 246.215 566.461 248.066 571.429 251.767L576.251 246.653H579.319L581.073 271.055H576.251C574.205 264.431 571.429 259.512 567.922 256.297C564.415 253.083 559.837 251.475 554.187 251.475C549.511 251.475 545.809 252.644 543.082 254.982C540.452 257.223 539.137 259.999 539.137 263.311C539.137 269.156 549.073 273.831 568.945 277.338C573.815 278.118 577.761 280.261 580.78 283.767C583.8 287.274 585.31 291.414 585.31 296.188C585.31 302.519 582.924 307.731 578.15 311.822C573.377 315.914 567.386 317.959 560.178 317.959C556.379 317.959 553.018 317.423 550.096 316.352C547.271 315.378 544.299 313.673 541.182 311.238L535.922 317.375H531.977L530.516 290.197Z" fill="white"/>
<path d="M608.309 206.471C610.549 206.471 612.498 207.299 614.154 208.955C615.81 210.611 616.638 212.608 616.638 214.946C616.638 217.186 615.858 219.086 614.3 220.644C612.741 222.203 610.793 222.982 608.455 222.982C606.117 222.982 604.169 222.203 602.61 220.644C601.052 219.086 600.272 217.186 600.272 214.946C600.272 212.705 601.052 210.757 602.61 209.101C604.266 207.347 606.166 206.471 608.309 206.471ZM589.46 252.936V247.384L616.638 246.215V305.393C616.638 308.705 618.44 310.361 622.044 310.361H629.788V315.914H590.921V310.361H598.081C602.367 310.361 604.51 308.315 604.51 304.224V261.119C604.51 255.664 601.393 252.936 595.158 252.936H589.46Z" fill="white"/>
<path d="M636.992 268.717C636.992 262.093 639.622 256.589 644.882 252.206C650.142 247.725 656.864 245.484 665.046 245.484C668.845 245.484 672.206 245.971 675.128 246.946C678.051 247.822 681.071 249.283 684.188 251.329C686.428 248.991 688.669 247.189 690.909 245.923C693.247 244.559 695.536 243.877 697.777 243.877C700.017 243.877 701.966 244.656 703.622 246.215C705.278 247.774 706.106 249.722 706.106 252.06C706.106 253.911 705.521 255.42 704.352 256.589C703.281 257.758 702.014 258.343 700.553 258.343C698.118 258.343 696.267 256.687 695.001 253.375C694.416 251.816 693.734 251.037 692.955 251.037C692.176 251.037 691.299 251.329 690.325 251.914C689.351 252.498 688.425 253.277 687.549 254.251C689.302 256.687 690.617 258.927 691.494 260.973C692.468 263.019 692.955 265.551 692.955 268.571C692.955 274.903 690.374 280.407 685.211 285.082C680.048 289.758 673.716 292.096 666.215 292.096H658.179C653.308 292.096 649.753 292.583 647.512 293.557C645.272 294.434 644.151 296.285 644.151 299.11C644.151 301.448 645.028 303.006 646.781 303.786C648.535 304.565 651.409 304.955 655.402 304.955L673.521 304.662C690.374 304.662 698.8 310.41 698.8 321.904C698.8 328.723 695.634 334.276 689.302 338.562C683.068 342.848 674.398 344.991 663.293 344.991C653.941 344.991 646.733 343.481 641.667 340.461C636.602 337.539 634.069 333.74 634.069 329.064C634.069 322.343 639.622 317.959 650.727 315.914C641.083 313.673 636.261 309.143 636.261 302.324C636.261 299.012 637.333 296.236 639.476 293.996C641.716 291.658 645.028 289.758 649.412 288.297C645.32 285.959 642.203 283.232 640.06 280.114C638.014 276.9 636.992 273.101 636.992 268.717ZM665.046 250.014C660.565 250.014 656.912 251.67 654.087 254.982C651.36 258.294 649.996 262.824 649.996 268.571C649.996 274.513 651.36 279.14 654.087 282.452C656.815 285.764 660.468 287.42 665.046 287.42C669.527 287.42 673.132 285.764 675.859 282.452C678.587 279.14 679.95 274.465 679.95 268.425C679.95 262.872 678.538 258.44 675.713 255.128C672.985 251.719 669.43 250.014 665.046 250.014ZM669.138 316.06C660.955 316.06 654.769 317.131 650.581 319.274C646.392 321.417 644.297 324.535 644.297 328.626C644.297 332.23 646.051 335.055 649.558 337.101C653.162 339.244 658.227 340.315 664.754 340.315C672.547 340.315 678.733 339.049 683.311 336.516C687.89 333.984 690.179 330.818 690.179 327.019C690.179 319.713 683.165 316.06 669.138 316.06Z" fill="white"/>
<path d="M704.42 252.206V247.384L727.215 246.215C727.897 249.332 728.384 252.108 728.676 254.544C729.066 256.882 729.26 259.073 729.26 261.119C735.3 251.183 743.629 246.215 754.247 246.215C761.066 246.215 766.375 248.358 770.174 252.644C773.973 256.93 775.872 262.824 775.872 270.325V303.64C775.872 306.075 776.359 307.828 777.333 308.9C778.405 309.874 780.305 310.361 783.032 310.361H788V315.914H751.763V310.361H755.123C760.871 310.361 763.744 308.315 763.744 304.224V275C763.744 261.168 758.63 254.251 748.402 254.251C743.044 254.251 738.515 256.443 734.813 260.827C731.111 265.21 729.26 271.006 729.26 278.215V303.64C729.26 306.172 729.796 307.926 730.868 308.9C731.939 309.874 733.888 310.361 736.712 310.361H741.388V315.914H705.151V310.361H709.827C714.697 310.361 717.133 308.656 717.133 305.247V261.119C717.133 255.177 714.113 252.206 708.073 252.206H704.42Z" fill="white"/>
<circle cx="608.676" cy="215.146" r="8.67579" fill="#5B4D47"/>
</svg>
