<svg width="48" height="46" viewBox="0 0 48 46" fill="none" xmlns="http://www.w3.org/2000/svg">
<path d="M15.8377 31.2022H0.057373V29.5988H2.67336C3.37658 29.5988 3.92509 29.5004 4.31889 29.3035C4.74083 29.0785 4.95179 28.769 4.95179 28.3752V3.43902C4.95179 2.22948 4.24857 1.62471 2.84213 1.62471H0.057373V0.0213623H16.344C19.41 0.0213623 21.815 0.696455 23.559 2.04664C25.3311 3.39683 26.2172 5.19707 26.2172 7.44738C26.2172 9.19137 25.6124 10.6822 24.4029 11.9199C23.2215 13.1294 21.4494 14.0999 19.0865 14.8312C24.9655 16.097 27.9049 18.7692 27.9049 22.8479C27.9049 25.267 26.8079 27.2642 24.6139 28.8394C22.4479 30.4146 19.5225 31.2022 15.8377 31.2022ZM9.38209 3.18586V14.3249H15.2891C19.2553 14.3249 21.2384 12.0464 21.2384 7.48957C21.2384 5.09862 20.5914 3.49528 19.2975 2.67954C18.2005 1.97632 16.1752 1.62471 13.2217 1.62471C11.8996 1.62471 10.9292 1.6669 10.3103 1.75129C9.6915 1.80755 9.38209 2.28574 9.38209 3.18586ZM15.7955 15.9282H9.38209V27.9111C9.38209 29.0363 10.1416 29.5988 11.6605 29.5988H15.4579C20.3523 29.5988 22.7995 27.3204 22.7995 22.7635C22.7995 20.6257 22.1807 18.9521 20.943 17.7425C19.7054 16.533 17.9895 15.9282 15.7955 15.9282Z" fill="black"/>
<path d="M9.39887 17.745L4.91456 21.4387L4.84903 15.2791V8.39875C4.89271 7.30662 4.95387 4.78163 4.84903 3.41866C4.74419 2.05569 3.71322 1.67127 3.21084 1.64942H2.75215H0V0.0112373H3.01426H11.6639C12.1007 0.0112373 13.3943 0.0514439 15.0713 0.0112373C17.5367 -0.0478701 18.4351 0.142292 19.0685 0.20782C22.8429 0.627195 24.949 3.10327 25.5169 4.32644L21.2214 7.97171C21.3262 6.71359 20.9469 5.29712 20.7722 4.72921C20.5756 4.29236 20.3741 3.45947 19.0685 2.56681C18.1424 1.93361 15.2897 1.67127 13.9573 1.64942H11.2707C9.59322 1.70185 9.3946 2.85076 9.43828 3.41866V14.2962H13.4987L11.5328 15.9344H9.39887V17.745Z" fill="#5B4D47"/>
<path d="M18.7764 16.0109V14.4385H34.5828C36.4586 14.4385 38.0448 14.6592 39.3413 15.1006C40.6378 15.5144 41.9481 16.3419 43.2722 17.5833C46.3618 20.5073 47.9066 24.5348 47.9066 29.6657C47.9066 34.0242 46.8721 37.5275 44.8032 40.1757C42.7619 42.8239 39.893 44.3825 36.1966 44.8515C35.7828 44.9066 35.2311 44.948 34.5414 44.9756C33.8794 45.0032 33.3415 45.017 32.9277 45.017H18.7764V43.4446H21.6728C22.9969 43.4446 23.659 42.9619 23.659 41.9964V17.3764C23.659 16.4661 23.0797 16.0109 21.9211 16.0109H18.7764ZM33.3828 16.0109H29.9071C28.6657 16.0109 28.0451 16.5074 28.0451 17.5005V41.955C28.0451 42.9481 28.8037 43.4446 30.3209 43.4446H32.9277C36.431 43.4446 38.9689 42.3826 40.5413 40.2585C42.1136 38.1068 42.8998 34.7414 42.8998 30.1622C42.8998 25.3072 42.1274 21.7349 40.5826 19.4453C39.0379 17.1557 36.6379 16.0109 33.3828 16.0109Z" fill="black"/>
<path d="M25.0536 36.3634L24.9219 36.3634C24.8668 36.0349 24.6147 35.8706 24.1658 35.8706L24.1658 35.7427L24.8806 35.7427L24.8806 35.1709L25.0536 35.1709L25.0536 35.7427L26.1859 35.7427C26.2811 35.7427 26.3564 35.7201 26.4116 35.675C26.4667 35.6299 26.4943 35.5672 26.4943 35.4869C26.4943 35.3891 26.4504 35.3126 26.3627 35.2575C26.2749 35.1998 26.147 35.1709 25.979 35.1709L25.979 35.043C26.2047 35.043 26.3777 35.0932 26.4981 35.1935C26.6159 35.2913 26.6749 35.4242 26.6749 35.5922C26.6749 35.7352 26.636 35.848 26.5583 35.9308C26.4805 36.0135 26.3727 36.0549 26.2348 36.0549L25.0536 36.0549L25.0536 36.3634ZM25.016 34.925L24.8806 34.925L24.8505 34.2931L25.5614 34.2931C25.3232 34.2229 25.1451 34.1401 25.0273 34.0448C24.9094 33.9495 24.8505 33.8316 24.8505 33.6912C24.8505 33.5959 24.8806 33.5207 24.9407 33.4655C24.9984 33.4078 25.0787 33.379 25.1815 33.379C25.2517 33.379 25.3094 33.3978 25.3545 33.4354C25.3997 33.473 25.4222 33.5219 25.4222 33.5821C25.4222 33.6373 25.4034 33.6824 25.3658 33.7175C25.3257 33.7501 25.2743 33.7664 25.2116 33.7664C25.1765 33.7664 25.1401 33.7577 25.1025 33.7401C25.0649 33.7226 25.0423 33.7138 25.0348 33.7138C25.0298 33.7138 25.0248 33.7188 25.0197 33.7288C25.0197 33.7313 25.0185 33.7376 25.016 33.7476C25.016 33.8555 25.1213 33.9658 25.332 34.0787C25.5401 34.189 25.7608 34.2442 25.994 34.2442L26.3702 34.2442C26.4579 34.2442 26.5018 34.1777 26.5018 34.0448L26.5018 33.8191L26.6448 33.8191L26.6448 34.9137L26.5018 34.9137L26.5018 34.7407C26.5018 34.6178 26.4617 34.5564 26.3815 34.5564L25.2605 34.5564C25.0975 34.5564 25.016 34.6279 25.016 34.7708L25.016 34.925ZM23.8273 32.783C23.8273 32.7254 23.8486 32.6752 23.8912 32.6326C23.9339 32.5899 23.9853 32.5686 24.0455 32.5686C24.1032 32.5686 24.1521 32.5887 24.1922 32.6288C24.2323 32.6689 24.2524 32.7191 24.2524 32.7793C24.2524 32.8395 24.2323 32.8896 24.1922 32.9297C24.1521 32.9699 24.1032 32.9899 24.0455 32.9899C23.9878 32.9899 23.9376 32.9699 23.895 32.9297C23.8499 32.8871 23.8273 32.8382 23.8273 32.783ZM25.0235 33.2683L24.8806 33.2683L24.8505 32.5686L26.3739 32.5686C26.4592 32.5686 26.5018 32.5222 26.5018 32.4294L26.5018 32.2301L26.6448 32.2301L26.6448 33.2307L26.5018 33.2307L26.5018 33.0464C26.5018 32.936 26.4492 32.8808 26.3438 32.8808L25.2342 32.8808C25.0937 32.8808 25.0235 32.9611 25.0235 33.1216L25.0235 33.2683ZM24.8806 32.1199L24.8505 31.5519C24.9132 31.5393 24.9771 31.528 25.0423 31.518C25.1075 31.508 25.1702 31.503 25.2304 31.503C25.105 31.4227 25.0122 31.3387 24.952 31.2509C24.8843 31.1531 24.8505 31.0428 24.8505 30.9199C24.8505 30.7218 24.937 30.5525 25.11 30.4121C25.2831 30.2717 25.505 30.2014 25.7758 30.2014C26.0417 30.2014 26.2623 30.2754 26.4379 30.4234C26.6109 30.5688 26.6974 30.7456 26.6974 30.9538C26.6974 31.177 26.5846 31.3563 26.3589 31.4917L27.0774 31.4917C27.1802 31.4917 27.2316 31.4315 27.2316 31.3111L27.2316 31.1795L27.3745 31.1795L27.3745 32.1199L27.2316 32.1199L27.2316 31.9882C27.2316 31.8678 27.1902 31.8077 27.1075 31.8077L25.2492 31.8077C25.1564 31.8077 25.0937 31.8315 25.0611 31.8791C25.026 31.9243 25.0085 32.0045 25.0085 32.1199L24.8806 32.1199ZM25.0197 31.0064C25.0197 31.1494 25.09 31.2672 25.2304 31.36C25.3683 31.4503 25.5514 31.4954 25.7796 31.4954C26.0228 31.4954 26.2084 31.4528 26.3363 31.3675C26.4642 31.2798 26.5282 31.1594 26.5282 31.0064C26.5282 30.7105 26.2761 30.5626 25.7721 30.5626C25.5288 30.5626 25.3432 30.6014 25.2153 30.6792C25.0849 30.7569 25.0197 30.866 25.0197 31.0064Z" fill="#5B4D47"/>
<path d="M25.0536 43.4322L24.9219 43.4322C24.8668 43.1037 24.6147 42.9394 24.1658 42.9394L24.1658 42.8115L24.8806 42.8115L24.8806 42.2397L25.0536 42.2397L25.0536 42.8115L26.1859 42.8115C26.2811 42.8115 26.3564 42.7889 26.4116 42.7438C26.4667 42.6986 26.4943 42.636 26.4943 42.5557C26.4943 42.4579 26.4504 42.3814 26.3627 42.3262C26.2749 42.2686 26.147 42.2397 25.979 42.2397L25.979 42.1118C26.2047 42.1118 26.3777 42.162 26.4981 42.2623C26.6159 42.3601 26.6749 42.493 26.6749 42.661C26.6749 42.804 26.636 42.9168 26.5583 42.9996C26.4805 43.0823 26.3727 43.1237 26.2348 43.1237L25.0536 43.1237L25.0536 43.4322ZM25.016 41.9938L24.8806 41.9938L24.8505 41.3619L25.5614 41.3619C25.3232 41.2916 25.1451 41.2089 25.0273 41.1136C24.9094 41.0183 24.8505 40.9004 24.8505 40.76C24.8505 40.6647 24.8806 40.5895 24.9407 40.5343C24.9984 40.4766 25.0787 40.4478 25.1815 40.4478C25.2517 40.4478 25.3094 40.4666 25.3545 40.5042C25.3997 40.5418 25.4222 40.5907 25.4222 40.6509C25.4222 40.7061 25.4034 40.7512 25.3658 40.7863C25.3257 40.8189 25.2743 40.8352 25.2116 40.8352C25.1765 40.8352 25.1401 40.8265 25.1025 40.8089C25.0649 40.7913 25.0423 40.7826 25.0348 40.7826C25.0298 40.7826 25.0248 40.7876 25.0197 40.7976C25.0197 40.8001 25.0185 40.8064 25.016 40.8164C25.016 40.9243 25.1213 41.0346 25.332 41.1474C25.5401 41.2578 25.7608 41.313 25.994 41.313L26.3702 41.313C26.4579 41.313 26.5018 41.2465 26.5018 41.1136L26.5018 40.8879L26.6448 40.8879L26.6448 41.9825L26.5018 41.9825L26.5018 41.8095C26.5018 41.6866 26.4617 41.6252 26.3815 41.6252L25.2605 41.6252C25.0975 41.6252 25.016 41.6966 25.016 41.8396L25.016 41.9938ZM23.8273 39.8518C23.8273 39.7941 23.8486 39.744 23.8912 39.7014C23.9339 39.6587 23.9853 39.6374 24.0455 39.6374C24.1032 39.6374 24.1521 39.6575 24.1922 39.6976C24.2323 39.7377 24.2524 39.7879 24.2524 39.8481C24.2524 39.9083 24.2323 39.9584 24.1922 39.9985C24.1521 40.0387 24.1032 40.0587 24.0455 40.0587C23.9878 40.0587 23.9376 40.0387 23.895 39.9985C23.8499 39.9559 23.8273 39.907 23.8273 39.8518ZM25.0235 40.3371L24.8806 40.3371L24.8505 39.6374L26.3739 39.6374C26.4592 39.6374 26.5018 39.591 26.5018 39.4982L26.5018 39.2989L26.6448 39.2989L26.6448 40.2995L26.5018 40.2995L26.5018 40.1151C26.5018 40.0048 26.4492 39.9496 26.3438 39.9496L25.2342 39.9496C25.0937 39.9496 25.0235 40.0299 25.0235 40.1904L25.0235 40.3371ZM24.8806 39.1887L24.8505 38.6207C24.9132 38.6081 24.9771 38.5968 25.0423 38.5868C25.1075 38.5768 25.1702 38.5717 25.2304 38.5717C25.105 38.4915 25.0122 38.4075 24.952 38.3197C24.8843 38.2219 24.8505 38.1116 24.8505 37.9887C24.8505 37.7906 24.937 37.6213 25.11 37.4809C25.2831 37.3404 25.505 37.2702 25.7758 37.2702C26.0417 37.2702 26.2623 37.3442 26.4379 37.4922C26.6109 37.6376 26.6974 37.8144 26.6974 38.0225C26.6974 38.2457 26.5846 38.425 26.3589 38.5605L27.0774 38.5605C27.1802 38.5605 27.2316 38.5003 27.2316 38.3799L27.2316 38.2482L27.3745 38.2482L27.3745 39.1887L27.2316 39.1887L27.2316 39.057C27.2316 38.9366 27.1902 38.8764 27.1075 38.8764L25.2492 38.8764C25.1564 38.8764 25.0937 38.9003 25.0611 38.9479C25.026 38.9931 25.0085 39.0733 25.0085 39.1887L24.8806 39.1887ZM25.0197 38.0752C25.0197 38.2182 25.09 38.336 25.2304 38.4288C25.3683 38.5191 25.5514 38.5642 25.7796 38.5642C26.0228 38.5642 26.2084 38.5216 26.3363 38.4363C26.4642 38.3486 26.5282 38.2282 26.5282 38.0752C26.5282 37.7793 26.2761 37.6313 25.7721 37.6313C25.5288 37.6313 25.3432 37.6702 25.2153 37.7479C25.0849 37.8257 25.0197 37.9348 25.0197 38.0752Z" fill="#5B4D47"/>
<path d="M25.0536 29.2946L24.9219 29.2946C24.8668 28.9661 24.6147 28.8018 24.1658 28.8018L24.1658 28.6739L24.8806 28.6739L24.8806 28.1022L25.0536 28.1022L25.0536 28.6739L26.1859 28.6739C26.2811 28.6739 26.3564 28.6514 26.4116 28.6062C26.4667 28.5611 26.4943 28.4984 26.4943 28.4181C26.4943 28.3203 26.4504 28.2438 26.3627 28.1887C26.2749 28.131 26.147 28.1022 25.979 28.1022L25.979 27.9743C26.2047 27.9743 26.3777 28.0244 26.4981 28.1247C26.6159 28.2225 26.6749 28.3554 26.6749 28.5235C26.6749 28.6664 26.636 28.7793 26.5583 28.862C26.4805 28.9448 26.3727 28.9861 26.2348 28.9861L25.0536 28.9861L25.0536 29.2946ZM25.016 27.8562L24.8806 27.8562L24.8505 27.2243L25.5614 27.2243C25.3232 27.1541 25.1451 27.0713 25.0273 26.976C24.9094 26.8807 24.8505 26.7629 24.8505 26.6224C24.8505 26.5271 24.8806 26.4519 24.9407 26.3967C24.9984 26.339 25.0787 26.3102 25.1815 26.3102C25.2517 26.3102 25.3094 26.329 25.3545 26.3666C25.3997 26.4042 25.4222 26.4531 25.4222 26.5133C25.4222 26.5685 25.4034 26.6136 25.3658 26.6488C25.3257 26.6814 25.2743 26.6977 25.2116 26.6977C25.1765 26.6977 25.1401 26.6889 25.1025 26.6713C25.0649 26.6538 25.0423 26.645 25.0348 26.645C25.0298 26.645 25.0248 26.65 25.0197 26.66C25.0197 26.6625 25.0185 26.6688 25.016 26.6788C25.016 26.7867 25.1213 26.897 25.332 27.0099C25.5401 27.1202 25.7608 27.1754 25.994 27.1754L26.3702 27.1754C26.4579 27.1754 26.5018 27.1089 26.5018 26.976L26.5018 26.7503L26.6448 26.7503L26.6448 27.845L26.5018 27.845L26.5018 27.6719C26.5018 27.549 26.4617 27.4876 26.3815 27.4876L25.2605 27.4876C25.0975 27.4876 25.016 27.5591 25.016 27.702L25.016 27.8562ZM23.8273 25.7143C23.8273 25.6566 23.8486 25.6064 23.8912 25.5638C23.9339 25.5212 23.9853 25.4998 24.0455 25.4998C24.1032 25.4998 24.1521 25.5199 24.1922 25.56C24.2323 25.6002 24.2524 25.6503 24.2524 25.7105C24.2524 25.7707 24.2323 25.8208 24.1922 25.861C24.1521 25.9011 24.1032 25.9211 24.0455 25.9211C23.9878 25.9211 23.9376 25.9011 23.895 25.861C23.8499 25.8183 23.8273 25.7694 23.8273 25.7143ZM25.0235 26.1995L24.8806 26.1995L24.8505 25.4998L26.3739 25.4998C26.4592 25.4998 26.5018 25.4534 26.5018 25.3607L26.5018 25.1613L26.6448 25.1613L26.6448 26.1619L26.5018 26.1619L26.5018 25.9776C26.5018 25.8672 26.4492 25.8121 26.3438 25.8121L25.2342 25.8121C25.0937 25.8121 25.0235 25.8923 25.0235 26.0528L25.0235 26.1995ZM24.8806 25.0511L24.8505 24.4831C24.9132 24.4705 24.9771 24.4593 25.0423 24.4492C25.1075 24.4392 25.1702 24.4342 25.2304 24.4342C25.105 24.3539 25.0122 24.2699 24.952 24.1821C24.8843 24.0843 24.8505 23.974 24.8505 23.8511C24.8505 23.653 24.937 23.4837 25.11 23.3433C25.2831 23.2029 25.505 23.1326 25.7758 23.1326C26.0417 23.1326 26.2623 23.2066 26.4379 23.3546C26.6109 23.5 26.6974 23.6768 26.6974 23.885C26.6974 24.1082 26.5846 24.2875 26.3589 24.4229L27.0774 24.4229C27.1802 24.4229 27.2316 24.3627 27.2316 24.2423L27.2316 24.1107L27.3745 24.1107L27.3745 25.0511L27.2316 25.0511L27.2316 24.9194C27.2316 24.7991 27.1902 24.7389 27.1075 24.7389L25.2492 24.7389C25.1564 24.7389 25.0937 24.7627 25.0611 24.8103C25.026 24.8555 25.0085 24.9357 25.0085 25.0511L24.8806 25.0511ZM25.0197 23.9376C25.0197 24.0806 25.09 24.1984 25.2304 24.2912C25.3683 24.3815 25.5514 24.4267 25.7796 24.4267C26.0228 24.4267 26.2084 24.384 26.3363 24.2988C26.4642 24.211 26.5282 24.0906 26.5282 23.9376C26.5282 23.6417 26.2761 23.4938 25.7721 23.4938C25.5288 23.4938 25.3432 23.5326 25.2153 23.6104C25.0849 23.6881 25.0197 23.7972 25.0197 23.9376Z" fill="#5B4D47"/>
<path d="M25.0536 22.2259L24.9219 22.2259C24.8668 21.8974 24.6147 21.7331 24.1658 21.7331L24.1658 21.6052L24.8806 21.6052L24.8806 21.0334L25.0536 21.0334L25.0536 21.6052L26.1859 21.6052C26.2811 21.6052 26.3564 21.5826 26.4116 21.5375C26.4667 21.4923 26.4943 21.4297 26.4943 21.3494C26.4943 21.2516 26.4504 21.1751 26.3627 21.1199C26.2749 21.0623 26.147 21.0334 25.979 21.0334L25.979 20.9055C26.2047 20.9055 26.3777 20.9557 26.4981 21.056C26.6159 21.1538 26.6749 21.2867 26.6749 21.4547C26.6749 21.5977 26.636 21.7105 26.5583 21.7933C26.4805 21.876 26.3727 21.9174 26.2348 21.9174L25.0536 21.9174L25.0536 22.2259ZM25.016 20.7875L24.8806 20.7875L24.8505 20.1556L25.5614 20.1556C25.3232 20.0853 25.1451 20.0026 25.0273 19.9073C24.9094 19.812 24.8505 19.6941 24.8505 19.5537C24.8505 19.4584 24.8806 19.3832 24.9407 19.328C24.9984 19.2703 25.0787 19.2415 25.1815 19.2415C25.2517 19.2415 25.3094 19.2603 25.3545 19.2979C25.3997 19.3355 25.4222 19.3844 25.4222 19.4446C25.4222 19.4998 25.4034 19.5449 25.3658 19.58C25.3257 19.6126 25.2743 19.6289 25.2116 19.6289C25.1765 19.6289 25.1401 19.6202 25.1025 19.6026C25.0649 19.585 25.0423 19.5763 25.0348 19.5763C25.0298 19.5763 25.0248 19.5813 25.0197 19.5913C25.0197 19.5938 25.0185 19.6001 25.016 19.6101C25.016 19.718 25.1213 19.8283 25.332 19.9411C25.5401 20.0515 25.7608 20.1067 25.994 20.1067L26.3702 20.1067C26.4579 20.1067 26.5018 20.0402 26.5018 19.9073L26.5018 19.6816L26.6448 19.6816L26.6448 20.7762L26.5018 20.7762L26.5018 20.6032C26.5018 20.4803 26.4617 20.4189 26.3815 20.4189L25.2605 20.4189C25.0975 20.4189 25.016 20.4903 25.016 20.6333L25.016 20.7875ZM23.8273 18.6455C23.8273 18.5878 23.8486 18.5377 23.8912 18.4951C23.9339 18.4524 23.9853 18.4311 24.0455 18.4311C24.1032 18.4311 24.1521 18.4512 24.1922 18.4913C24.2323 18.5314 24.2524 18.5816 24.2524 18.6418C24.2524 18.702 24.2323 18.7521 24.1922 18.7922C24.1521 18.8324 24.1032 18.8524 24.0455 18.8524C23.9878 18.8524 23.9376 18.8324 23.895 18.7922C23.8499 18.7496 23.8273 18.7007 23.8273 18.6455ZM25.0235 19.1308L24.8806 19.1308L24.8505 18.4311L26.3739 18.4311C26.4592 18.4311 26.5018 18.3847 26.5018 18.2919L26.5018 18.0926L26.6448 18.0926L26.6448 19.0932L26.5018 19.0932L26.5018 18.9088C26.5018 18.7985 26.4492 18.7433 26.3438 18.7433L25.2342 18.7433C25.0937 18.7433 25.0235 18.8236 25.0235 18.9841L25.0235 19.1308ZM24.8806 17.9824L24.8505 17.4144C24.9132 17.4018 24.9771 17.3905 25.0423 17.3805C25.1075 17.3705 25.1702 17.3655 25.2304 17.3655C25.105 17.2852 25.0122 17.2012 24.952 17.1134C24.8843 17.0156 24.8505 16.9053 24.8505 16.7824C24.8505 16.5843 24.937 16.415 25.11 16.2746C25.2831 16.1341 25.505 16.0639 25.7758 16.0639C26.0417 16.0639 26.2623 16.1379 26.4379 16.2859C26.6109 16.4313 26.6974 16.6081 26.6974 16.8163C26.6974 17.0394 26.5846 17.2187 26.3589 17.3542L27.0774 17.3542C27.1802 17.3542 27.2316 17.294 27.2316 17.1736L27.2316 17.0419L27.3745 17.0419L27.3745 17.9824L27.2316 17.9824L27.2316 17.8507C27.2316 17.7303 27.1902 17.6701 27.1075 17.6701L25.2492 17.6701C25.1564 17.6701 25.0937 17.694 25.0611 17.7416C25.026 17.7868 25.0085 17.867 25.0085 17.9824L24.8806 17.9824ZM25.0197 16.8689C25.0197 17.0119 25.09 17.1297 25.2304 17.2225C25.3683 17.3128 25.5514 17.3579 25.7796 17.3579C26.0228 17.3579 26.2084 17.3153 26.3363 17.23C26.4642 17.1423 26.5282 17.0219 26.5282 16.8689C26.5282 16.573 26.2761 16.425 25.7721 16.425C25.5288 16.425 25.3432 16.4639 25.2153 16.5417C25.0849 16.6194 25.0197 16.7285 25.0197 16.8689Z" fill="#5B4D47"/>
<path d="M46.843 23.0496L42.7945 27.2909C43.6299 40.5287 38.1034 42.8422 34.0549 43.4205H29.7494C29.3638 43.4205 28.4642 43.0349 28.3357 42.8422L25.3154 45.027H33.5408C35.1345 45.1813 37.7052 44.7328 39.1316 44.3202C49.3492 41.3641 48.8351 27.4194 46.843 23.0496Z" fill="#5B4D47"/>
</svg>
